<?xml version="1.0" encoding="UTF-8"?>
<svg id="Capa_2" data-name="Capa 2" xmlns="http://www.w3.org/2000/svg" viewBox="0 0 897.85 996.22">
  <defs>
    <style>
      .cls-1 {
        fill: #203b73;
      }
    </style>
  </defs>
  <g id="Capa_2-2" data-name="Capa 2">
    <g>
      <path d="M259.95,980.58c-5.79-3.2-15.29-11.01-15.29-18.15v-144.26H96.57C47.1,818.16.27,766.45.1,717.82l-.1-613.42C1.6,51.89,40.13,7.5,93,2.5c81.33-7.68,173.39,5.27,255.85-.3,24.01,2.91,23.88,36.87,3.66,40.07-88.19,1.83-177.18-3.18-264.93,2.58-17.34,1.83-45.47,29.59-45.47,46.25v541.71c6.8-2.7,12.38-7.65,19.13-10.48,5.82-2.44,24.26-8.62,29.59-8.62h602.85v-106.05c0-16.23,36.78-26.57,40.17,1.87l-1.49,296.68c-1.61,4.54-12.79,11.96-16.7,11.96h-226.43v148.09c0,5.46-9.63,11.17-13.38,14.33h-11.46l-96.46-74.55-96.53,74.55h-11.46ZM693.69,653.84H96.57c-35.75,0-59.34,41.56-53.6,74.62,3.27,18.83,28.22,47.67,47.87,47.67h153.82v-40.13h-65.92c-.59,0-9.21-5.55-9.92-6.32-10.02-10.93-4.56-31.93,11.79-33.85,23.17-2.73,60.88-1.04,85.71-1.15,96.18-.4,192.53,2.51,288.72,1.31,24.99,3.51,17.05,40,.13,40h-65.92v40.13h204.45v-122.29ZM449.11,736h-162.42v181.52l74.46-58.33c11.05-3.02,14.42.4,22.82,5.95,22.21,14.68,42.65,37.44,65.14,52.37v-181.52Z"/>
      <path class="cls-1" d="M816.3,195.55c-3.53,37.28,3.75,80.42-.52,117-3.82,32.78-29.2,47.33-55.82,60.74-100.14,50.44-208.24,48-306.4-5.74-22.42-12.28-39.3-24.06-44.41-51.13l-.47-120.87-74.71-34.64c-11.92-13.52-9.27-26.62,6.13-35.51,84.87-35.63,166.32-80.04,251.04-115.83,24.38-10.3,22.89-8,46.53,1.91,73.06,30.64,152.03,68.44,223.56,103.18,16.04,7.79,47.53,17.21,32.81,41.14-8.49,13.8-62.17,29.27-77.74,39.76ZM775.86,214.36l-150.99,69.71-14.31,3.07-161.44-72.78v96.49c0,10.84,36.7,27.5,46.48,31.87,75.12,33.53,146.4,35.5,222.88,4.38,12.05-4.9,57.38-24.3,57.38-38.16v-94.58Z"/>
      <path d="M259.95,980.58c-5.79-3.2-15.29-11.01-15.29-18.15v-144.26H96.57C47.1,818.16.27,766.45.1,717.82l-.1-613.42C1.6,51.89,40.13,7.5,93,2.5c81.33-7.68,173.39,5.27,255.85-.3,24.01,2.91,23.88,36.87,3.66,40.07-88.19,1.83-177.18-3.18-264.93,2.58-17.34,1.83-45.47,29.59-45.47,46.25v541.71c6.8-2.7,12.38-7.65,19.13-10.48,5.82-2.44,24.26-8.62,29.59-8.62h602.85v-106.05c0-16.23,36.78-26.57,40.17,1.87l-1.49,296.68c-1.61,4.54-12.79,11.96-16.7,11.96h-226.43v148.09c0,5.46-9.63,11.17-13.38,14.33h-11.46l-96.46-74.55-96.53,74.55h-11.46ZM693.69,653.84H96.57c-35.75,0-59.34,41.56-53.6,74.62,3.27,18.83,28.22,47.67,47.87,47.67h153.82v-40.13h-65.92c-.59,0-9.21-5.55-9.92-6.32-10.02-10.93-4.56-31.93,11.79-33.85,23.17-2.73,60.88-1.04,85.71-1.15,96.18-.4,192.53,2.51,288.72,1.31,24.99,3.51,17.05,40,.13,40h-65.92v40.13h204.45v-122.29ZM449.11,736h-162.42v181.52l74.46-58.33c11.05-3.02,14.42.4,22.82,5.95,22.21,14.68,42.65,37.44,65.14,52.37v-181.52Z"/>
    </g>
    <path class="cls-1" d="M236.64,735.63h.02v42.75h-.02v44.79h.02v153.71c0,7.61,10.12,15.93,16.29,19.34h12.22l102.85-79.43,102.77,79.43h12.22c3.95-3.34,14.03-9.33,14.23-15.1v-245.63H236.64v.13Z"/>
  </g>
</svg>