<?xml version="1.0" encoding="UTF-8"?>
<svg id="Capa_2" data-name="Capa 2" xmlns="http://www.w3.org/2000/svg" viewBox="0 0 982.32 924.53">
  <defs>
    <style>
      .cls-1 {
        fill: #fff;
      }
    </style>
  </defs>
  <g id="Capa_2-2" data-name="Capa 2">
    <g>
      <path class="cls-1" d="M212.64,0c11.68,6.14,21.22,9.83,27.14,22.55.89,1.91,5.22,14.76,5.22,15.59v58.94h492.31v-58.94c0-.82,4.33-13.68,5.22-15.59,5.92-12.72,15.46-16.41,27.14-22.55h67.03c9.23,4.44,30.05,20.23,30.05,31.2v62.41l3.47,3.47h53.16c3.08,0,15.91,6.09,19.68,8.06,21.17,11.07,31.1,28.09,39.26,49.73v709.58c-9.16,31.34-28.75,50.94-60.09,60.09H60.09c-31.34-9.16-50.94-28.75-60.09-60.09V154.86c7.78-20.25,15.95-35.34,34.86-47.19,3.29-2.06,19.55-10.59,21.77-10.59h55.47l3.47-3.47V31.2c0-12.31,20.43-25.9,30.05-31.2h67.03ZM210.33,34.67h-60.09v157.17h60.09V34.67ZM832.08,34.67h-60.09v157.17h60.09V34.67ZM115.57,129.43h-47.38c-8.63,0-33.51,20.24-33.51,28.89v109.79h907.2c.57,0,1.37,1.88,2.31,1.81l3.47-2.97v-108.63c0-8.78-23.75-28.89-33.51-28.89h-47.38v63.56c0,11.28-16.23,27.08-27.11,30.67-14.5,4.79-62.6,4.9-76.87-.65-11.52-4.48-25.46-22.49-25.46-34.64v-58.94H245v58.94c0,11.67-14.22,30.47-25.46,34.63-14.79,5.48-62.01,5.57-76.86.66-10.88-3.59-27.11-19.39-27.11-30.67v-63.56ZM947.65,302.78H34.67v558.19c0,8.52,16.35,26.18,25.85,27.31l851.39,1.68c11.4,3.15,35.73-17.66,35.73-26.67V302.78Z"/>
      <path class="cls-1" d="M105.65,710.06c13.95-3.13,89.56-2.43,105.89-.54,10.7,1.24,16.11,6.71,17.33,17.33,2.64,22.81,2.19,76.24.06,99.55-1.06,11.66-4.83,18.13-17.39,19.59-20.59,2.39-84.06,2.76-104.18.07-7.78-1.04-13.97-7.11-15.02-15.02-4.35-32.65,3.43-74.95.18-108.7,1.03-5.46,7.84-11.09,13.14-12.28Z"/>
      <path class="cls-1" d="M766.7,710.07c33.31,1.95,73.38-4.32,105.88-.54,10.7,1.24,16.11,6.71,17.33,17.33,2.39,20.64,2.76,84.02.07,104.18-1.04,7.78-7.11,13.97-15.02,15.02-20.16,2.68-83.57,2.32-104.18-.07-10.7-1.24-16.11-6.71-17.33-17.33-2.5-21.64-2.51-80.17,0-101.8.99-8.55,4.79-14.25,13.26-16.79Z"/>
      <path class="cls-1" d="M108.03,347.25c18.96-3.39,75.94-2.35,96.61-.63,13.16,1.09,22.53,2.43,24.24,17.36,2.68,23.43,2.24,77.95.05,101.86-1.02,11.16-3.06,15.86-15.09,17.27-23.63,2.78-79.96,2.28-104.16.06-11.16-1.02-15.86-3.06-17.27-15.09-2.34-19.89-2.77-87.18.18-106.23,1.37-8.84,7.03-13.1,15.44-14.61Z"/>
      <path class="cls-1" d="M764.37,529.77c34.78,2.1,76.58-4.47,110.51-.52,10.23,1.19,13.85,4.88,15.02,15.02,2.71,23.28,2.24,78.04.07,101.85-1.06,11.66-4.83,18.13-17.39,19.59-22.76,2.64-76.27,2.18-99.55.06-11.66-1.06-18.13-4.83-19.59-17.39-2.49-21.43-2.53-80.42,0-101.8.88-7.43,4.19-13.22,10.93-16.8Z"/>
      <path class="cls-1" d="M758.69,480.15c-2.33-2.15-4.87-10.83-5.26-14.36-2.54-22.91-2.29-76.36-.09-99.58,1.17-12.38,7.15-18.15,19.75-19.56,17.04-1.91,88.36-2.42,103.06,1.06,10.67,2.53,12.91,8.29,13.83,18.53,2.13,23.89,2.67,78.57-.07,101.85-1.42,12.03-6.11,14.07-17.27,15.09-25.48,2.33-76.3,2.69-101.87,1.05-2.94-.19-10.08-2.24-12.06-4.07Z"/>
      <path class="cls-1" d="M325.24,710.07c33.41,2.43,75.97-4.92,108.26-.62,7.78,1.04,13.97,7.11,15.02,15.02,2.91,21.87,2.08,81.36-.02,104.24-1.02,11.16-3.06,15.86-15.09,17.27-23.18,2.73-78.1,2.22-101.85.07-15.34-1.39-18.25-7.14-19.62-21.98-2.1-22.68-2.54-75.02.04-97.22.99-8.55,4.79-14.25,13.26-16.79Z"/>
      <path class="cls-1" d="M103.33,529.77l110.58-.59c10.77,1.21,14.14,10.15,15.02,19.65,2.14,23.18,2.58,76.86-.06,99.55-1.24,10.7-6.71,16.11-17.33,17.33-22.81,2.64-76.24,2.19-99.55.06-11.66-1.06-18.13-4.83-19.59-17.39-2.4-20.62-2.75-84.02-.07-104.18.94-7.03,5.16-10.84,11-14.42Z"/>
      <path class="cls-1" d="M322.91,529.77c34.78,2.1,76.58-4.46,110.52-.53,8.63,1,13.9,3.77,15.09,12.65,2.91,21.9,2.23,83.79.03,106.58-1.23,12.67-7.85,16.21-19.68,17.3-23.23,2.15-76.79,2.57-99.55-.06-13.9-1.6-16.23-9.44-17.37-21.92-2.08-22.61-2.57-75.15.04-97.22.88-7.43,4.19-13.22,10.93-16.8Z"/>
      <path class="cls-1" d="M317.24,480.15c-3.2-3.01-4.92-12.04-5.33-16.61-2.09-23.15-2.46-74.51.06-97.24,1.58-14.22,8.35-18.24,22.01-19.61,22.54-2.26,69.91-2.2,92.55-.07,12.61,1.18,20.67,3.33,22.01,17.28,2.24,23.29,2.84,84.04-.02,106.58-1.21,9.52-8.71,13.66-17.81,14.08-27.02,1.24-74.65.9-101.45-1.39-3.82-.33-9.14-.3-12.02-3.01Z"/>
      <path class="cls-1" d="M665.01,660.39c-2.56,2.56-10.48,4.91-14.32,5.33-22.59,2.51-74.27,2.17-97.24.05-11.83-1.09-18.45-4.64-19.68-17.3-2.2-22.66-2.9-84.84.03-106.58,1.4-10.38,8.02-11.86,17.34-12.71,23.17-2.11,82-2.9,104.24,0,11.9,1.55,14.03,11.73,15,21.99,2.1,22.37,2.42,72.88-.03,94.9-.43,3.84-2.77,11.76-5.33,14.32Z"/>
      <path class="cls-1" d="M665.08,351.92c2.34,2.17,4.88,10.82,5.27,14.37,2.51,22.63,2.17,74.23.05,97.24-1.14,12.32-6.72,20.42-20.11,21.02-32.9,1.49-70.18-4.27-103.77-1.37-10.06-.49-11.93-8.82-12.71-17.34-2.11-23.17-2.9-82,0-104.24,1.55-11.9,11.73-14.03,21.99-15,22.64-2.12,70.01-2.19,92.55.07,3.91.39,14.18,2.87,16.74,5.24Z"/>
      <path class="cls-1" d="M553.91,816.71c-8.58-8.04-32.48-26.16-31.14-38.38,1.23-11.21,14.39-18.19,24.4-13.86,7.77,3.36,29.3,31.94,34.08,30.63,4.24-4.47,8.45-10.97,12.69-15.15,13.28-13.13,42.9-45.95,56.13-54.89,20.01-13.51,37.22,3.57,25.88,21.4l-86.66,86.65c-16.73,11.25-25.88-7.51-35.38-16.4Z"/>
    </g>
  </g>
</svg>