<?xml version="1.0" encoding="UTF-8"?>
<svg id="Capa_2" data-name="Capa 2" xmlns="http://www.w3.org/2000/svg" viewBox="0 0 980.88 980.23">
  <defs>
    <style>
      .cls-1 {
        fill: #fff;
      }
    </style>
  </defs>
  <g id="Capa_2-2" data-name="Capa 2">
    <path class="cls-1" d="M0,141.29c3.86-4.25,6.78-9.68,12.94-11C173.75,88.03,333.22,39.18,494.59,0c159.57,45.16,320.63,86.7,479.43,133.59,7.91,6.07,9.54,18.07,1.93,25-8.61,7.83-56.44,14.4-59.51,19.02-1.96,48.59-.47,97.7-.76,146.49,10.99,40.2,36.97,84.41,46.46,124.01,1.31,5.49,2.64,11.41.31,16.86-17.75,13.88-35.96,41.42-53.59,53.66-10.38,7.21-15.27,4.08-23.96-2.86-7.81-6.24-44.33-42.3-48.25-49.43-2.3-4.18-4.63-7.99-2.66-12.88l49.01-129.25v-136.95l-130.33,35.74.49,192.75c177.61,218.69,42.75,540.55-239.03,562.48l-4.63,2h-38.31l-47.95-6.64c-252.99-49.48-363-359.24-195.7-557.84l.15-193.76L5.78,159.44,0,152.79v-11.49ZM718.27,231.32l-228.59,62.57-227.27-62.57v181.96l228.71,59.21,227.15-59.21v-181.96ZM180.05,620.14h164.72c-.32-21.16,2.74-42.46,6.66-63.25,5.31-28.15,15.45-54.6,22.07-82.32l-123.61-31.84c-42.6,48.6-64.87,113.21-69.85,177.41ZM800.63,620.14c-5.1-64.14-27.22-128.82-69.85-177.41l-123.61,31.84c6.62,27.72,16.76,54.16,22.07,82.32,3.92,20.79,6.98,42.09,6.66,63.25h164.72ZM377.33,620.14h226.02c0-46.95-14.02-92.07-28.76-136.01-23.85,4.63-51.02,16.85-74.57,20.22-28.04,4.01-65.79-15.35-93.93-20.22-14.73,43.94-28.76,89.05-28.76,136.01ZM182.92,652.7c-1.95,1.43-2.08,1.67-2.08,3.91-.08,50.94,24.49,113.93,54,154.93,39.34-22.79,82.28-36.97,126.4-47.65l-19.33-111.19h-158.98ZM603.35,652.7h-226.02c-.46,35.76,8.67,70.81,17.41,105.16,63.28-7.88,127.8-7.9,191.2,0,8.73-34.35,17.86-69.33,17.41-105.16ZM638.78,652.7l-19.33,111.19c44.11,10.64,86.94,24.92,126.33,47.53,28.29-38,47.43-89.48,52.7-136.93.67-5.99,2.68-17.86-.72-21.79h-158.98ZM447.81,785.43c-12.2.76-24.36,3.61-36.66,3.56-3.25,1.18-3.32,2.95-2.87,5.98.65,4.38,12.41,28.47,15.3,34.64,13.71,29.22,32.97,61.8,51.8,88.03,4.41,6.15,9.39,15.27,15.74,18.47,4.09-.87,40.79-59.28,45.53-67.59,5.35-9.36,37.55-71.35,35.98-76.74-.63-2.17-2.72-2.72-4.71-3.07-34.19-5.93-85.12-5.46-120.1-3.27ZM453.93,945.75l-40.53-63.84-39.82-84.74c-41.73,3.77-81.1,22.07-118.83,39.43-.78,2.9.77,3.17,1.88,4.79,4.83,7,24.44,25.26,31.68,31.53,46.35,40.05,105.06,64.24,165.61,72.84ZM725.93,836.61c-37.74-17.27-77.18-35.91-118.83-39.43l-39.82,84.74-40.53,63.84c60.46-8.61,119.3-32.82,165.61-72.84,7.25-6.26,26.85-24.52,31.68-31.53,1.12-1.62,2.67-1.89,1.88-4.79Z"/>
    <path class="cls-1" d="M975.95,158.59c7.61-6.92,5.98-18.93-1.93-25C815.22,86.7,654.16,45.16,494.59,0,333.22,39.18,173.75,88.03,12.94,130.3c-6.17,1.32-9.08,6.74-12.94,11v11.49l5.78,6.65,221.9,62.55-.09,112.25h0v102.31l267.21,66.79,194.44-49.92,41.52-10.7s.02.02.02.03l22.21-5.7v-71.02l-.36-143.04,130.33-35.74v136.95l-49.01,129.25c-1.97,4.89.37,8.71,2.66,12.88,3.92,7.12,40.43,43.18,48.25,49.43,8.69,6.94,13.58,10.07,23.96,2.86,17.62-12.24,35.83-39.79,53.59-53.66,2.33-5.45,1-11.37-.31-16.86-9.49-39.6-35.47-83.81-46.46-124.01.29-48.78-1.19-97.89.76-146.49,3.07-4.62,50.9-11.19,59.51-19.02ZM718.27,413.28l-227.15,59.21-228.71-59.21v-181.96l227.27,62.57,228.59-62.57v181.96Z"/>
  </g>
</svg>