<?xml version="1.0" encoding="UTF-8"?>
<svg id="Capa_2" data-name="Capa 2" xmlns="http://www.w3.org/2000/svg" viewBox="0 0 976.72 942.09">
  <defs>
    <style>
      .cls-1 {
        fill: #fff;
      }
    </style>
  </defs>
  <g id="Capa_2-2" data-name="Capa 2">
    <g>
      <path class="cls-1" d="M976.72,373.64v1.91l-25.9,34.3c-6.8-1.12-20.38-18.92-26.51-13.32l-56.07,79.53,11.1,12.84-50.46,69.76-60.03-44.71,49.5-68.88,19,11.78,3-1.01,57.28-80.31c1-2.38-2.43-4.26-3.96-5.65-4.32-3.94-25.28-19.21-30.07-21.51-1.77-.85-3.29-2.14-5.18-.6l-82.13,117.43-208.88-68.56-8.42-6.84-139.39-179.26,83.98-118.28-79.99-57.19C428.36,30.01,446.04-.45,450.83,0l525.89,373.64Z"/>
      <polygon class="cls-1" points="452.11 304.97 38.15 304.97 38.15 718.93 364.36 718.93 311.9 757.08 0 757.08 0 266.82 428.27 266.82 452.11 304.97"/>
      <circle class="cls-1" cx="550.87" cy="728.32" r="84.77"/>
      <polygon class="cls-1" points="429.23 919.22 417.96 830.35 333.84 799.04 418.73 728.55 516.98 853.35 434.9 918.23 429.23 919.22"/>
      <polygon class="cls-1" points="743.98 844.81 652.66 856.53 619.03 942.09 551.38 857.15 674.68 759.18 743.98 844.81"/>
      <rect class="cls-1" x="194.58" y="461.4" width="392.98" height="32.43"/>
      <rect class="cls-1" x="194.58" y="528.16" width="392.98" height="30.52"/>
      <rect class="cls-1" x="194.58" y="591.12" width="392.98" height="30.52"/>
      <path class="cls-1" d="M757.34,757.08l-24.4-.41-30.9-34.9c-2.24-5.37,14.97-1.9,17.15-2.84v-247.99l38.15,14.31v271.84Z"/>
      <rect class="cls-1" x="278.42" y="387" width="225.2" height="28.61"/>
    </g>
  </g>
</svg>