<?xml version="1.0" encoding="UTF-8"?>
<svg id="Capa_2" data-name="Capa 2" xmlns="http://www.w3.org/2000/svg" viewBox="0 0 979.98 980.23">
  <defs>
    <style>
      .cls-1 {
        fill: #203b73;
      }

      .cls-2 {
        stroke: #000;
        stroke-miterlimit: 10;
        stroke-width: 9px;
      }
    </style>
  </defs>
  <g id="Capa_2-2" data-name="Capa 2">
    <g id="Capa_1-2" data-name="Capa 1-2">
      <g>
        <path class="cls-1" d="M979.98,486v106.98s0,.02,0,.03l-5.97,8.5h0s-177.54,177.45-177.54,177.45h0c-10.93,8.49-17.2,6.17-26.95-2-2.48-2.08-8.11-9.54-10.82-8.87,0,0-.02,0-.03.01l-60.23,59.85s-.02.04,0,.06c3.89,7.28,9.08,13.93,12.56,21.46,28.41,61.28-26.42,113.69-82.83,126.2l-24.18,4.31h-.01c-10.11-.56-20.98.76-30.99,0-115.33-8.7-167.35-133.79-47.67-184.17,42.41-17.85,89.53-14.65,131.35,3,4.05,1.71,13.66,8.36,17.29,6.69,0,0,.01,0,.02-.01l61.97-61.97s.02-.05,0-.07c-8.74-8.93-24.61-20.88-14.48-34.49h0s231.02-230.97,231.02-230.97h0c10.99-8.03,22.48-4.17,27.5,8h.01Z"/>
        <path class="cls-1" d="M20.97,0s0,0,.02,0c3.14,1.94,6.35,3.86,9.04,6.44,50.52,48.74,94.88,104.77,144.93,154.07h0c9.23,12.5,3.9,17.86-3.91,28.84-.01.02-.01.05,0,.07,8.37,7.25,16.24,15.11,23.96,23.05s25.5,24.23,30.81,32.2c11.79,17.74-13.11,28.21-20.89,39.79-.63.93-1.3,1.6-.83,2.83,0,0,0,.01.01.02l78.91,79.17h0c27.08,32.08-28.98,59.33-3.44,93.44,10.27,13.71,23.19,15.82,38.95,11.12,17.05-5.09,34.15-14.95,51.41-20.02.02,0,.05,0,.06.03l11.76,29.48s0,.02,0,.03c-.51,2.29-36.62,16.46-41.52,18.19-7.35,2.6-17.24,6.37-24.87,7.13-52.49,5.25-90.17-43.19-70.56-92.56,1.76-4.43,12.88-23.43,11.71-26.28,0,0,0-.01-.01-.02l-76.99-76.02s-.04-.02-.06,0c-12.24,7.01-21.63,30.49-38.37,23.41-8.23-3.48-44.14-41.23-53.63-50.37-1.63-1.57-3.95-6.26-5.82-5.96-.01,0-.02,0-.03.02-7.61,8.07-13.66,11.28-24.3,6.1-6.25-3.05-49.56-39.56-53.76-45.24-1.38-1.86-1.66-4.4-3.54-5.93-.01,0-.02-.01-.02-.03C0,230.96,0,14.98,0,14c0,0,0,0,0-.01C2.7,7.84,5.19,3.65,10.97,0,10.98,0,10.98,0,10.99,0c.26,0,9.74,0,9.99,0Z"/>
        <path class="cls-2" d="M174.98,372c10.34,49.41,30.22,94.83,55.2,138.31,4.73,8.23,11.31,15.54,14.33,24.67h0s42.78,310.22,42.78,310.22c3.77,27.89,29.04,43.81,55.69,33.28,20.87-8.25,22.9-24.65,26.7-44.3,17.81-91.92,26.99-188.24,46.63-279.37,17.68-82.06,115.83-87.27,144.7-12.33h0s34.53,205.46,34.53,205.46c0,.02,0,.05-.03.05-.99.28-20.23,5.77-28.07,6.04-1.79.06-3.68.31-4.25-1.72l-33.49-199.51h0c-12.46-37.57-63.67-40.3-78.19-2.78h0c-19.52,95.36-30.48,192.59-48.84,288.16-2.61,13.61-4.91,29.03-11.88,41.12-28.07,48.71-98.49,46.35-126.61-1-7.49-12.61-8.77-22.79-11.05-36.95-15.57-96.68-24.47-194.62-39.59-291.4h0c-13.92-28.16-30.59-54.68-43.02-83.99-8.63-20.34-25.52-62.71-27.44-83.62-.1-1.14-.69-2.76.47-3.45,0,0,.01,0,.02,0l31.41-6.89h0Z"/>
        <path class="cls-2" d="M735.19,536.73c.16-1.17.57-2.3,1.2-3.3,50.23-79.99,85.8-178.85,79.57-274.93-5.52-85.12-76.49-154.56-161.45-159.55-59.54-3.5-103.24,30.48-161.99,31.09-44.36.46-67.78-13.03-107.34-24.76-62.5-18.53-126.35.81-172.12,44.93-3.06,2.95-7.88,3.05-11.11.29h0c-2.59-2.2-14.98-13.18-16.04-14.96-2.77-4.69,6.43-11.72,10.04-15.07,56.6-52.46,136.45-67.88,209.53-43.5,39.01,13.01,57.14,21.95,100.97,19.01,39.49-2.65,75.23-25.65,116.14-29.86,112.55-11.59,217.65,74.24,226.36,187.38,7.67,99.64-28.42,207.16-80.62,290.94-.61.98-1.01,2.08-1.17,3.23l-11.72,83.81c-.62,4.42-4.61,7.57-9.05,7.13-5-.5-11.38-1.61-16.44-2.49-4.39-.77-7.39-4.87-6.8-9.29l12.05-90.1Z"/>
      </g>
    </g>
  </g>
</svg>