<?xml version="1.0" encoding="UTF-8"?>
<svg id="Capa_2" data-name="Capa 2" xmlns="http://www.w3.org/2000/svg" viewBox="0 0 980 980.24">
  <defs>
    <style>
      .cls-1 {
        fill: #fff;
      }
    </style>
  </defs>
  <g id="Capa_1-2" data-name="Capa 1">
    <g>
      <path class="cls-1" d="M980,486v107l-5.98,8.52-177.55,177.45c-10.93,8.49-17.2,6.17-26.95-2-2.48-2.08-8.13-9.57-10.83-8.87l-60.27,59.89c3.89,7.29,9.09,13.95,12.58,21.49,28.41,61.28-26.42,113.69-82.83,126.2l-24.19,4.31c-10.11-.56-20.98.76-31,0-115.33-8.7-167.35-133.79-47.67-184.17,42.41-17.85,89.53-14.65,131.35,3,4.05,1.71,13.68,8.37,17.3,6.69l62.01-62.01c-8.73-8.93-24.66-20.9-14.51-34.53l231.03-230.97c10.99-8.03,22.48-4.17,27.5,8ZM947,581.5v-50.5l-188,188.49,24.01,24.07h1.98l162.01-162.06ZM582.79,817.29c-40.34-.35-107.03,30.38-89.27,80.68,22.76,64.5,165.32,64.82,188.97,0,18.43-50.5-50.68-81.77-90.99-80.97l-8.7.28Z"/>
      <path class="cls-1" d="M21,0c3.14,1.94,6.36,3.86,9.05,6.45,50.52,48.74,94.88,104.77,144.93,154.07,9.24,12.51,3.89,17.87-3.93,28.87,8.38,7.26,16.26,15.13,23.99,23.08s25.5,24.23,30.81,32.2c11.79,17.74-13.11,28.21-20.89,39.79-.63.93-1.3,1.6-.83,2.84l78.92,79.18c27.08,32.08-28.98,59.33-3.44,93.44,10.27,13.71,23.19,15.82,38.95,11.12,17.06-5.09,34.18-14.97,51.45-20.03l11.78,29.54c-.34,2.24-36.61,16.47-41.52,18.21-7.35,2.6-17.24,6.37-24.87,7.13-52.49,5.25-90.17-43.19-70.56-92.56,1.76-4.44,12.91-23.48,11.71-26.29l-77.03-76.06c-12.26,6.99-21.65,30.51-38.4,23.43-8.23-3.48-44.14-41.23-53.63-50.37-1.64-1.58-3.97-6.29-5.84-5.96-7.62,8.08-13.67,11.3-24.31,6.11-6.25-3.05-49.56-39.56-53.76-45.24-1.38-1.87-1.66-4.42-3.56-5.94V14C2.72,7.84,5.21,3.65,11,0h10ZM33,59v161.5c3.45,3.32,29.28,26.66,31.31,26.36l75.44-75.38L33,59ZM117.39,241.38c-1.28,1.29-2.38,3.12-3.86,4.65-1.94,2-8.82,5.44-7.08,8.94l40.19,39.96,41.29-40.56-41.45-41.41-1.35.19c-7.92,10.27-18.47,18.95-27.74,28.24Z"/>
      <path class="cls-1" d="M175,372c10.34,49.41,30.22,94.83,55.2,138.31,4.73,8.23,11.31,15.54,14.33,24.67l42.78,310.22c3.77,27.89,29.04,43.81,55.69,33.28,20.87-8.25,22.9-24.65,26.7-44.3,17.81-91.92,26.99-188.24,46.63-279.37,17.68-82.06,115.83-87.27,144.7-12.33l34.54,205.5-2.27,1.81c-8.34.02-17.79,3.96-25.84,4.24-1.79.06-3.68.31-4.25-1.72l-33.49-199.51c-12.46-37.57-63.67-40.3-78.19-2.77-19.52,95.35-30.48,192.58-48.84,288.16-2.61,13.61-4.91,29.03-11.88,41.12-28.07,48.71-98.49,46.35-126.61-1-7.49-12.61-8.77-22.79-11.05-36.95-15.57-96.68-24.47-194.63-39.59-291.41-13.92-28.15-30.59-54.67-43.02-83.98-8.63-20.34-25.52-62.71-27.44-83.62-.1-1.14-.69-2.77.48-3.46l31.42-6.89Z"/>
      <path class="cls-1" d="M722.11,634.89l13.34-99.94c50.73-80.26,86.8-179.76,80.53-276.45-5.52-85.12-76.49-154.56-161.45-159.55-59.54-3.5-103.24,30.48-161.99,31.09-44.36.46-67.78-13.03-107.34-24.76-64.68-19.18-130.81,2.21-176.85,49.64-.84.14-5.32-3.51-6.38-4.42-2.59-2.2-14.98-13.18-16.04-14.96-2.77-4.69,6.43-11.72,10.04-15.07,56.6-52.46,136.45-67.88,209.53-43.5,39.01,13.01,57.14,21.95,100.97,19.01,39.49-2.65,75.23-25.65,116.14-29.86,112.55-11.59,217.65,74.24,226.36,187.38,7.72,100.23-28.85,208.44-81.55,292.43l-12.88,92.12c-1.99,2.93-27.81-2.84-32.45-3.17Z"/>
    </g>
  </g>
</svg>